<?xml version="1.0" standalone="no"?>
<!DOCTYPE svg PUBLIC "-//W3C//DTD SVG 20010904//EN"
 "http://www.w3.org/TR/2001/REC-SVG-20010904/DTD/svg10.dtd">
<svg version="1.0" xmlns="http://www.w3.org/2000/svg"
 width="2000.000000pt" height="2000.000000pt" viewBox="0 0 2000.000000 2000.000000"
 preserveAspectRatio="xMidYMid meet">

<g transform="translate(0.000000,2000.000000) scale(0.100000,-0.100000)"
fill="#000000" stroke="none">
<path d="M9315 15363 c-63 -7 -221 -46 -282 -69 -389 -146 -692 -486 -873
-979 -26 -70 -41 -99 -51 -96 -8 2 -66 17 -129 33 -139 36 -359 49 -488 28
-233 -37 -437 -145 -605 -319 -241 -250 -369 -578 -370 -951 -2 -341 97 -642
301 -919 77 -106 260 -283 373 -363 l96 -68 -98 -292 c-54 -161 -110 -345
-125 -409 -24 -103 -25 -119 -13 -145 19 -40 75 -64 165 -71 l76 -6 -6 -41
c-11 -74 -75 -666 -95 -886 -38 -402 -63 -858 -77 -1392 l-7 -258 -51 6 -51 6
-126 -158 c-69 -88 -196 -247 -281 -355 -165 -207 -222 -261 -369 -349 -43
-27 -118 -63 -167 -80 -518 -189 -927 79 -1215 795 -251 624 -273 1359 -65
2189 120 480 313 968 486 1227 79 118 188 228 272 274 51 28 62 30 160 30 123
0 162 -15 228 -90 91 -103 108 -248 72 -600 -40 -392 -11 -771 67 -857 9 -10
32 -20 52 -23 61 -9 103 -26 169 -68 86 -54 124 -66 210 -67 157 -1 334 59
398 134 19 22 39 56 44 75 6 22 10 306 10 741 l0 705 -24 56 c-45 110 -146
204 -306 284 -303 151 -717 237 -1150 239 -190 1 -225 -2 -300 -21 -493 -126
-852 -553 -1159 -1376 -163 -437 -274 -945 -328 -1497 -25 -257 -25 -849 0
-1015 89 -587 339 -1089 757 -1519 256 -263 514 -417 800 -477 134 -28 341
-30 479 -5 273 50 579 200 848 417 106 85 406 387 473 477 l55 72 6 -232 c5
-206 8 -241 28 -303 42 -128 124 -268 203 -347 102 -102 239 -103 327 -3 70
80 97 175 126 440 13 118 29 190 70 335 89 308 238 724 287 800 l23 35 3 -76
c2 -56 -7 -125 -34 -265 -65 -330 -51 -521 56 -740 40 -82 60 -111 114 -161
92 -86 149 -107 291 -108 108 0 112 1 183 37 136 71 342 226 446 338 l57 62
57 -54 c170 -163 338 -243 529 -255 259 -16 505 89 732 315 53 52 128 116 168
143 39 26 90 66 112 88 23 23 41 39 41 37 0 -2 -12 -29 -26 -60 -14 -31 -34
-98 -44 -149 -20 -96 -40 -389 -40 -587 l0 -115 -1063 -298 c-584 -163 -1066
-297 -1071 -297 -5 0 -36 14 -71 31 -77 38 -166 51 -262 39 -87 -11 -117 -19
-458 -115 -143 -41 -644 -182 -1114 -315 -470 -133 -866 -247 -880 -255 -70
-36 -104 -104 -109 -220 -10 -232 127 -445 286 -445 22 0 327 81 678 180 352
100 734 207 849 240 916 258 906 255 1000 315 64 41 118 96 147 152 21 40 29
45 88 63 36 10 436 123 890 250 454 127 879 247 945 266 66 19 127 34 137 34
16 0 18 -10 18 -77 0 -210 37 -541 80 -720 99 -411 284 -613 565 -617 78 -1
97 2 147 26 177 83 337 355 461 783 85 292 125 537 134 812 5 164 8 193 22
197 102 31 380 106 392 106 22 0 124 -109 380 -405 114 -132 251 -283 305
-336 211 -206 383 -279 657 -279 191 0 315 26 886 187 284 80 704 198 934 263
453 128 455 128 497 211 47 90 55 151 55 399 -1 190 -5 264 -23 387 -128 872
-476 1801 -779 2085 -65 60 -121 88 -177 88 -25 0 -151 -30 -288 -69 -133 -38
-445 -126 -693 -196 -815 -229 -899 -254 -1002 -294 -341 -134 -520 -300 -618
-573 -41 -115 -72 -261 -119 -558 -42 -264 -93 -548 -101 -558 -5 -6 -389
-111 -392 -108 -2 2 -21 62 -43 134 -22 72 -55 173 -75 224 -19 51 -35 96 -35
99 0 4 39 10 88 14 132 11 183 45 184 124 0 43 -20 87 -52 116 -13 11 -36 40
-52 64 -26 41 -28 53 -28 140 0 82 -3 100 -25 137 -27 47 -77 82 -133 95 -43
10 -177 -4 -307 -32 -49 -10 -93 -15 -98 -10 -9 9 33 445 64 666 22 152 85
479 97 501 5 10 24 2 77 -33 101 -65 131 -77 166 -63 31 13 27 4 86 174 24 71
71 202 105 290 33 89 64 171 69 183 8 22 11 21 101 -38 157 -103 358 -193 526
-235 97 -25 295 -29 392 -10 299 61 516 273 603 590 19 70 22 106 22 261 -1
155 -4 192 -23 264 -34 125 -67 206 -127 313 l-55 98 54 82 c114 176 191 363
238 578 20 93 23 133 23 345 0 214 -3 252 -24 355 -71 346 -216 627 -435 846
-119 120 -216 189 -361 259 -176 86 -332 125 -493 125 l-97 0 -24 81 c-33 109
-127 299 -203 412 -78 115 -258 297 -362 367 -232 155 -501 225 -768 200 -103
-10 -204 -28 -275 -49 -32 -9 -33 -9 -87 68 -325 461 -866 755 -1379 750 -73
-1 -145 -4 -162 -6z m440 -248 c233 -50 415 -149 603 -330 101 -96 205 -225
270 -333 18 -29 32 -55 32 -58 0 -3 -28 -36 -61 -72 -134 -147 -267 -343 -389
-575 -56 -106 -160 -332 -160 -346 0 -3 20 30 43 74 257 478 674 792 1122 845
217 26 458 -32 631 -151 135 -92 265 -250 352 -424 46 -94 111 -271 101 -277
-2 -2 -48 -24 -102 -51 -54 -26 -128 -66 -165 -88 -79 -48 -224 -151 -219
-156 2 -1 82 17 178 41 236 60 343 78 479 78 127 1 204 -11 325 -49 93 -29
294 -124 380 -180 250 -163 428 -440 512 -793 31 -132 42 -370 23 -515 -22
-178 -82 -356 -166 -498 -63 -105 -59 -104 -118 -50 -86 77 -260 195 -241 163
5 -8 33 -49 64 -90 150 -204 301 -476 355 -640 60 -184 73 -378 36 -526 -70
-275 -242 -414 -516 -414 -206 0 -418 78 -672 246 l-112 75 6 82 c21 268 -158
475 -678 781 -80 47 -158 100 -172 117 -70 83 3 196 198 308 156 89 398 170
518 172 68 2 63 10 -27 38 -120 38 -249 36 -380 -5 -27 -9 -134 -50 -238 -91
-103 -41 -240 -88 -305 -105 -109 -29 -129 -31 -292 -32 -198 0 -290 15 -485
80 -498 165 -781 455 -860 879 -35 186 -6 528 61 732 10 29 -54 -67 -87 -129
-48 -94 -87 -200 -150 -412 -98 -326 -166 -444 -292 -505 -87 -43 -173 -54
-316 -41 -443 38 -669 180 -748 470 -30 109 -23 348 15 524 19 93 25 133 15
121 -37 -51 -117 -226 -152 -332 -54 -162 -71 -274 -71 -464 0 -113 -3 -159
-12 -166 -7 -5 -59 -15 -114 -21 -56 -6 -137 -23 -180 -37 -136 -43 -183 -33
-329 65 -266 179 -433 443 -481 760 -54 359 63 744 300 988 210 217 469 288
751 207 86 -25 218 -84 241 -108 7 -7 19 -49 28 -95 37 -186 114 -373 221
-532 87 -132 101 -140 58 -33 -50 124 -90 290 -104 436 -70 705 438 1363 1126
1456 88 12 258 5 350 -14z m-1494 -3325 c685 -79 1233 -208 1849 -437 600
-224 1407 -630 1709 -861 99 -77 185 -172 223 -250 43 -86 49 -191 19 -307
-29 -112 -78 -250 -88 -248 -4 1 -71 41 -148 89 -77 49 -203 121 -280 160
-136 71 -323 150 -332 141 -2 -3 58 -50 134 -104 285 -206 583 -449 583 -476
0 -23 -74 -227 -83 -227 -5 0 -72 42 -150 94 -1397 922 -2844 1453 -4250 1557
-92 7 -172 16 -178 20 -24 15 -10 84 61 281 67 190 76 208 99 212 96 19 372
31 688 31 200 0 350 3 335 7 -54 15 -390 68 -522 83 -74 8 -203 18 -287 22
-83 3 -157 9 -163 13 -9 5 -6 19 9 47 93 183 246 213 772 153z m-143 -1135
c648 -105 1392 -338 2074 -649 275 -125 355 -164 586 -284 195 -102 222 -120
217 -137 -3 -11 -9 -45 -12 -76 -6 -61 -2 -73 57 -167 l33 -52 -12 -182 c-6
-100 -25 -319 -41 -487 -16 -168 -32 -369 -36 -446 -7 -158 -19 -186 -91 -222
-24 -12 -40 -28 -46 -48 -23 -72 -253 -300 -405 -402 -244 -163 -462 -173
-593 -25 -92 104 -164 332 -128 407 12 26 21 30 59 33 24 2 88 -1 142 -7 111
-12 219 -2 304 30 244 92 471 413 540 766 22 108 24 312 5 408 -44 226 -190
486 -329 588 -123 90 -230 115 -419 98 -152 -15 -281 -46 -407 -100 -103 -44
-161 -60 -217 -61 -35 0 -37 -2 -66 -67 -84 -188 -177 -529 -212 -778 -29
-205 -39 -331 -51 -606 -18 -435 -12 -583 30 -731 l14 -47 -58 -75 c-109 -142
-154 -164 -221 -105 -49 43 -103 158 -115 244 -9 70 -2 289 21 595 25 345 71
525 177 688 54 83 75 150 70 216 -7 87 -101 266 -157 299 -22 13 -35 13 -74 4
-36 -8 -67 -8 -118 1 -104 18 -167 15 -264 -13 -100 -29 -152 -54 -180 -85
-17 -19 -21 -42 -27 -154 -7 -147 -32 -258 -119 -525 -92 -279 -330 -904 -349
-916 -10 -6 -5 387 11 800 17 473 36 687 115 1320 66 532 105 777 145 928 12
43 13 44 147 22z m2000 -1149 c117 -106 135 -439 46 -846 -66 -298 -159 -477
-259 -496 -47 -9 -120 19 -163 62 -33 33 -34 34 -27 101 16 159 107 597 176
849 72 263 129 375 181 359 13 -4 34 -17 46 -29z m5010 -750 c79 -41 72 -164
-11 -201 -18 -8 -135 -44 -262 -79 -283 -80 -1109 -313 -1302 -367 -126 -36
-146 -40 -177 -29 -38 12 -73 49 -82 86 -8 30 11 87 36 109 11 10 162 58 347
110 734 208 1299 368 1323 375 40 13 99 11 128 -4z m136 -520 c18 -8 41 -24
50 -37 33 -48 12 -142 -38 -168 -12 -6 -262 -79 -556 -162 -294 -83 -670 -188
-834 -235 -164 -46 -316 -84 -336 -84 -67 0 -119 65 -106 133 14 74 -9 66 911
326 468 132 856 240 863 240 7 1 28 -5 46 -13z m156 -531 c41 -21 60 -53 60
-102 0 -74 -31 -97 -195 -143 -77 -22 -459 -130 -850 -240 -390 -110 -720
-200 -733 -200 -36 0 -80 27 -97 60 -34 66 -5 137 67 164 23 8 365 106 758
217 393 110 758 213 810 229 111 33 141 35 180 15z m-3780 -384 c11 -22 31
-78 44 -125 27 -90 86 -369 86 -402 0 -16 -16 -24 -92 -45 l-93 -25 -11 -120
c-14 -144 -17 -254 -6 -254 4 0 63 16 131 36 68 19 127 32 131 27 4 -4 15 -62
25 -127 28 -187 3 -430 -75 -756 -68 -282 -127 -400 -198 -400 -58 0 -90 69
-114 250 -17 125 -17 1003 0 1265 23 344 55 578 94 668 26 60 50 62 78 8z
m3956 -165 c27 -27 34 -42 34 -72 0 -49 -29 -97 -66 -112 -16 -6 -406 -117
-867 -247 -582 -164 -847 -234 -865 -230 -54 12 -92 61 -92 118 0 31 7 46 33
71 30 29 78 44 632 201 330 93 706 199 835 236 278 80 308 83 356 35z m134
-515 c37 -27 51 -61 46 -106 -8 -66 -39 -85 -226 -138 -1094 -310 -1520 -427
-1553 -427 -54 0 -107 51 -107 104 0 43 22 91 48 105 10 5 268 80 573 166 305
87 685 195 844 240 300 87 328 91 375 56z"/>
</g>
</svg>
